<?xml version="1.0" encoding="UTF-8" standalone="no"?>
<svg
   xmlns:dc="http://purl.org/dc/elements/1.1/"
   xmlns:cc="http://creativecommons.org/ns#"
   xmlns:rdf="http://www.w3.org/1999/02/22-rdf-syntax-ns#"
   xmlns:svg="http://www.w3.org/2000/svg"
   xmlns="http://www.w3.org/2000/svg"
   xmlns:sodipodi="http://sodipodi.sourceforge.net/DTD/sodipodi-0.dtd"
   xmlns:inkscape="http://www.inkscape.org/namespaces/inkscape"
   width="100mm"
   height="99.999992mm"
   viewBox="0 0 99.999997 99.999995"
   version="1.1"
   id="svg58"
   inkscape:version="1.0.1 (3bc2e813f5, 2020-09-07)"
   sodipodi:docname="port.svg">
  <defs
     id="defs52" />
  <sodipodi:namedview
     id="base"
     pagecolor="#ffffff"
     bordercolor="#666666"
     borderopacity="1.0"
     inkscape:pageopacity="0.0"
     inkscape:pageshadow="2"
     inkscape:zoom="0.49497475"
     inkscape:cx="217.22834"
     inkscape:cy="687.72975"
     inkscape:document-units="mm"
     inkscape:current-layer="layer1"
     inkscape:document-rotation="0"
     showgrid="false"
     inkscape:window-width="1920"
     inkscape:window-height="963"
     inkscape:window-x="0"
     inkscape:window-y="0"
     inkscape:window-maximized="1" />
  <metadata
     id="metadata55">
    <rdf:RDF>
      <cc:Work
         rdf:about="">
        <dc:format>image/svg+xml</dc:format>
        <dc:type
           rdf:resource="http://purl.org/dc/dcmitype/StillImage" />
        <dc:title></dc:title>
      </cc:Work>
    </rdf:RDF>
  </metadata>
  <g
     inkscape:label="Calque 1"
     inkscape:groupmode="layer"
     id="layer1"
     transform="translate(0.6734176,-0.65374389)">
    <rect
       style="fill:#00ffff;stroke:#00ffff;stroke-width:0.25425;stroke-opacity:1"
       id="p2"
       width="99.74575"
       height="99.745743"
       x="-0.5462926"
       y="0.78086889"
       inkscape:export-xdpi="8.1300001"
       inkscape:export-ydpi="8.1300001" />
    <path
       style="fill:none;stroke:#000000;stroke-width:3;stroke-linecap:butt;stroke-linejoin:miter;stroke-opacity:1;stroke-miterlimit:4;stroke-dasharray:none"
       d="M -0.67341734,13.88361 C 10.573982,7.3497702 20.665824,3.5752686 31.159279,3.704205 47.415188,3.5135588 56.48745,21.487575 68.397005,22.17601 c 9.511592,0.549821 22.241987,-2.228007 30.929578,-8.292402"
       id="path68"
       sodipodi:nodetypes="ccsc" />
    <path
       style="fill:none;stroke:#000000;stroke-width:3;stroke-linecap:butt;stroke-linejoin:miter;stroke-opacity:1;stroke-miterlimit:4;stroke-dasharray:none"
       d="M -0.67341734,41.081804 C 10.573983,34.547964 21.065346,30.773463 31.558801,30.902399 47.814711,30.711754 56.47816,49.015631 68.387715,49.704064 77.89931,50.253886 92.292543,48.63667 99.326583,41.411665"
       id="path68-3"
       sodipodi:nodetypes="ccsc" />
    <path
       style="fill:none;stroke:#000000;stroke-width:3;stroke-linecap:butt;stroke-linejoin:miter;stroke-opacity:1;stroke-miterlimit:4;stroke-dasharray:none"
       d="M -0.67341734,64.962247 C 10.573982,58.428408 21.039924,54.653907 31.533379,54.782843 c 16.25591,-0.190647 25.328171,17.78337 37.237726,18.471805 9.511595,0.54982 21.864748,-2.195641 30.555478,-8.102632"
       id="path68-3-6"
       sodipodi:nodetypes="ccsc" />
    <path
       style="fill:none;stroke:#000000;stroke-width:3;stroke-linecap:butt;stroke-linejoin:miter;stroke-opacity:1;stroke-miterlimit:4;stroke-dasharray:none"
       d="M -0.67341734,88.06902 C 10.573982,81.535179 20.73213,77.760678 31.225585,77.889614 47.481496,77.698968 56.553754,95.672985 68.46331,96.361419 c 9.511595,0.549821 22.495156,-1.905118 30.567639,-8.2924"
       id="path68-3-7"
       sodipodi:nodetypes="ccsc" />
    <rect
       style="fill:#00ffff;stroke:#00ffff;stroke-width:0.25425;stroke-opacity:1"
       id="p1"
       width="99.74575"
       height="99.745743"
       x="-100.54629"
       y="0.45101067"
       inkscape:export-xdpi="8.1300001"
       inkscape:export-ydpi="8.1300001" />
    <path
       style="fill:none;stroke:#000000;stroke-width:3;stroke-linecap:butt;stroke-linejoin:miter;stroke-miterlimit:4;stroke-dasharray:none;stroke-opacity:1"
       d="m -100.67342,13.553753 c 11.247405,-6.53384 21.339247,-10.308342 31.832703,-10.179405 16.25591,-0.190647 25.32817,17.78337 37.23773,18.471805 9.51159,0.549821 22.2419797,-2.228007 30.92956966,-8.292402"
       id="path68-6"
       sodipodi:nodetypes="ccsc" />
    <path
       style="fill:none;stroke:#000000;stroke-width:3;stroke-linecap:butt;stroke-linejoin:miter;stroke-miterlimit:4;stroke-dasharray:none;stroke-opacity:1"
       d="m -100.67342,40.751944 c 11.247406,-6.53384 21.738769,-10.30834 32.232224,-10.1794 16.255909,-0.19065 24.919359,18.11323 36.828919,18.80166 9.51159,0.54983 23.9048197,-1.06739 30.93885966,-8.2924"
       id="path68-3-75"
       sodipodi:nodetypes="ccsc" />
    <path
       style="fill:none;stroke:#000000;stroke-width:3;stroke-linecap:butt;stroke-linejoin:miter;stroke-miterlimit:4;stroke-dasharray:none;stroke-opacity:1"
       d="m -100.67342,64.632394 c 11.247405,-6.53384 21.713347,-10.30834 32.206803,-10.17941 16.25591,-0.19064 25.32817,17.78337 37.23773,18.47181 9.51159,0.54982 21.8647397,-2.19564 30.55546966,-8.10263"
       id="path68-3-6-3"
       sodipodi:nodetypes="ccsc" />
    <path
       style="fill:none;stroke:#000000;stroke-width:3;stroke-linecap:butt;stroke-linejoin:miter;stroke-miterlimit:4;stroke-dasharray:none;stroke-opacity:1"
       d="m -100.67342,87.739164 c 11.247405,-6.53384 21.405553,-10.30834 31.899008,-10.17941 16.255905,-0.19064 25.328165,17.78337 37.237725,18.47181 9.5116,0.54982 22.4951597,-1.90512 30.56763966,-8.2924"
       id="path68-3-7-5"
       sodipodi:nodetypes="ccsc" />
    <rect
       style="fill:#00ffff;stroke:#00ffff;stroke-width:0.25425;stroke-opacity:1"
       id="p3"
       width="99.74575"
       height="99.745743"
       x="99.453712"
       y="1.1107318"
       inkscape:export-xdpi="8.1300001"
       inkscape:export-ydpi="8.1300001" />
    <path
       style="fill:none;stroke:#000000;stroke-width:3;stroke-linecap:butt;stroke-linejoin:miter;stroke-miterlimit:4;stroke-dasharray:none;stroke-opacity:1"
       d="M 99.326583,14.213474 C 110.57399,7.6796345 120.66583,3.9051326 131.15929,4.0340696 147.4152,3.8434225 156.48746,21.817439 168.39702,22.505874 c 9.51159,0.549821 22.24198,-2.228007 30.92957,-8.292402"
       id="path68-6-2"
       sodipodi:nodetypes="ccsc" />
    <path
       style="fill:none;stroke:#000000;stroke-width:3;stroke-linecap:butt;stroke-linejoin:miter;stroke-miterlimit:4;stroke-dasharray:none;stroke-opacity:1"
       d="m 99.326583,41.411665 c 11.247407,-6.53384 21.738767,-10.308339 32.232227,-10.179399 16.25591,-0.190651 24.91936,18.113229 36.82892,18.801659 9.51159,0.549831 23.90482,-1.06739 30.93886,-8.292399"
       id="path68-3-75-9"
       sodipodi:nodetypes="ccsc" />
    <path
       style="fill:none;stroke:#000000;stroke-width:3;stroke-linecap:butt;stroke-linejoin:miter;stroke-miterlimit:4;stroke-dasharray:none;stroke-opacity:1"
       d="m 99.326583,65.292115 c 11.247407,-6.53384 21.713347,-10.308338 32.206807,-10.179409 16.25591,-0.190641 25.32817,17.78337 37.23773,18.471811 9.51159,0.54982 21.86474,-2.195642 30.55547,-8.102632"
       id="path68-3-6-3-1"
       sodipodi:nodetypes="ccsc" />
    <path
       style="fill:none;stroke:#000000;stroke-width:3;stroke-linecap:butt;stroke-linejoin:miter;stroke-miterlimit:4;stroke-dasharray:none;stroke-opacity:1"
       d="m 99.326583,88.398887 c 11.247407,-6.533841 21.405557,-10.308341 31.899007,-10.17941 16.25591,-0.19064 25.32817,17.783368 37.23773,18.471809 9.5116,0.54982 22.49516,-1.905119 30.56764,-8.292399"
       id="path68-3-7-5-2"
       sodipodi:nodetypes="ccsc" />
    <rect
       style="fill:#00ffff;stroke:#00ffff;stroke-width:0.25425;stroke-opacity:1"
       id="p6"
       width="99.74575"
       height="99.745743"
       x="99.453712"
       y="100.85648"
       inkscape:export-xdpi="8.1300001"
       inkscape:export-ydpi="8.1300001" />
    <path
       style="fill:none;stroke:#000000;stroke-width:3;stroke-linecap:butt;stroke-linejoin:miter;stroke-miterlimit:4;stroke-dasharray:none;stroke-opacity:1"
       d="m 99.326579,113.95922 c 11.247411,-6.53384 21.339251,-10.30834 31.832711,-10.17941 16.25591,-0.19064 25.32817,17.78337 37.23773,18.47181 9.51159,0.54982 22.24198,-2.22801 30.92957,-8.2924"
       id="path68-6-2-0"
       sodipodi:nodetypes="ccsc" />
    <path
       style="fill:none;stroke:#000000;stroke-width:3;stroke-linecap:butt;stroke-linejoin:miter;stroke-miterlimit:4;stroke-dasharray:none;stroke-opacity:1"
       d="m 99.326579,141.15741 c 11.247411,-6.53384 21.738771,-10.30834 32.232231,-10.1794 16.25591,-0.19065 24.91936,18.11323 36.82892,18.80166 9.51159,0.54983 23.90482,-1.06739 30.93886,-8.2924"
       id="path68-3-75-9-9"
       sodipodi:nodetypes="ccsc" />
    <path
       style="fill:none;stroke:#000000;stroke-width:3;stroke-linecap:butt;stroke-linejoin:miter;stroke-miterlimit:4;stroke-dasharray:none;stroke-opacity:1"
       d="m 99.326579,165.03786 c 11.247411,-6.53384 21.713351,-10.30833 32.206811,-10.17941 16.25591,-0.19064 25.32817,17.78337 37.23773,18.47182 9.51159,0.54982 21.86474,-2.19565 30.55547,-8.10264"
       id="path68-3-6-3-1-3"
       sodipodi:nodetypes="ccsc" />
    <path
       style="fill:none;stroke:#000000;stroke-width:3;stroke-linecap:butt;stroke-linejoin:miter;stroke-miterlimit:4;stroke-dasharray:none;stroke-opacity:1"
       d="m 99.326579,188.14464 c 11.247411,-6.53385 21.405561,-10.30835 31.899011,-10.17941 16.25591,-0.19064 25.32817,17.78336 37.23773,18.4718 9.5116,0.54982 22.49516,-1.90511 30.56764,-8.29239"
       id="path68-3-7-5-2-6"
       sodipodi:nodetypes="ccsc" />
    <rect
       style="fill:#00ffff;stroke:#00ffff;stroke-width:0.25425;stroke-opacity:1"
       id="p5"
       width="99.74575"
       height="99.745743"
       x="-0.80053711"
       y="100.19675"
       inkscape:export-xdpi="8.1300001"
       inkscape:export-ydpi="8.1300001" />
    <path
       style="fill:none;stroke:#000000;stroke-width:3;stroke-linecap:butt;stroke-linejoin:miter;stroke-miterlimit:4;stroke-dasharray:none;stroke-opacity:1"
       d="M -0.92766941,113.2995 C 10.319738,106.76566 20.411578,102.99116 30.905037,103.12009 c 16.255906,-0.19064 25.328176,17.78337 37.237736,18.47181 9.51159,0.54982 22.24198,-2.22801 30.92957,-8.29241"
       id="path68-6-2-6"
       sodipodi:nodetypes="ccsc" />
    <path
       style="fill:none;stroke:#000000;stroke-width:3;stroke-linecap:butt;stroke-linejoin:miter;stroke-miterlimit:4;stroke-dasharray:none;stroke-opacity:1"
       d="M -0.92766941,140.49769 C 10.319738,133.96385 20.811098,130.18935 31.304558,130.31829 c 16.255915,-0.19065 24.919365,18.11323 36.828925,18.80166 9.51159,0.54983 23.90482,-1.06739 30.93886,-8.2924"
       id="path68-3-75-9-2"
       sodipodi:nodetypes="ccsc" />
    <path
       style="fill:none;stroke:#000000;stroke-width:3;stroke-linecap:butt;stroke-linejoin:miter;stroke-miterlimit:4;stroke-dasharray:none;stroke-opacity:1"
       d="M -0.92766941,164.37814 C 10.319738,157.8443 20.785678,154.0698 31.27914,154.19873 c 16.255913,-0.19064 25.328173,17.78337 37.237733,18.47181 9.51159,0.54982 21.86474,-2.19564 30.55547,-8.10263"
       id="path68-3-6-3-1-6"
       sodipodi:nodetypes="ccsc" />
    <path
       style="fill:none;stroke:#000000;stroke-width:3;stroke-linecap:butt;stroke-linejoin:miter;stroke-miterlimit:4;stroke-dasharray:none;stroke-opacity:1"
       d="M -0.92766941,187.48491 C 10.319738,180.95107 20.477888,177.17657 30.971339,177.3055 c 16.255914,-0.19064 25.328174,17.78337 37.237724,18.47181 9.51161,0.54982 22.49517,-1.90512 30.56765,-8.2924"
       id="path68-3-7-5-2-1"
       sodipodi:nodetypes="ccsc" />
    <rect
       style="fill:#00ffff;stroke:#00ffff;stroke-width:0.25425;stroke-opacity:1"
       id="p4"
       width="99.74575"
       height="99.745743"
       x="-100.80055"
       y="100.00697"
       inkscape:export-xdpi="8.1300001"
       inkscape:export-ydpi="8.1300001" />
    <path
       style="fill:none;stroke:#000000;stroke-width:3;stroke-linecap:butt;stroke-linejoin:miter;stroke-miterlimit:4;stroke-dasharray:none;stroke-opacity:1"
       d="m -100.92769,113.10973 c 11.247411,-6.53384 21.33925,-10.30834 31.832709,-10.17941 16.255908,-0.19064 25.328177,17.78337 37.237736,18.47181 9.511591,0.54982 22.2419806,-2.22801 30.92957559,-8.29241"
       id="path68-6-2-6-7"
       sodipodi:nodetypes="ccsc" />
    <path
       style="fill:none;stroke:#000000;stroke-width:3;stroke-linecap:butt;stroke-linejoin:miter;stroke-miterlimit:4;stroke-dasharray:none;stroke-opacity:1"
       d="m -100.92769,140.30792 c 11.247411,-6.53385 21.738771,-10.30835 32.23223,-10.1794 16.255916,-0.19065 24.919366,18.11323 36.828926,18.80166 9.511591,0.54983 23.9048206,-1.06739 30.93886459,-8.29241"
       id="path68-3-75-9-2-9"
       sodipodi:nodetypes="ccsc" />
    <path
       style="fill:none;stroke:#000000;stroke-width:3;stroke-linecap:butt;stroke-linejoin:miter;stroke-miterlimit:4;stroke-dasharray:none;stroke-opacity:1"
       d="m -100.92769,164.18837 c 11.247411,-6.53385 21.713351,-10.30835 32.206812,-10.17941 16.255915,-0.19064 25.328173,17.78337 37.237733,18.4718 9.511591,0.54982 21.8647406,-2.19564 30.55547559,-8.10262"
       id="path68-3-6-3-1-6-2"
       sodipodi:nodetypes="ccsc" />
    <path
       style="fill:none;stroke:#000000;stroke-width:3;stroke-linecap:butt;stroke-linejoin:miter;stroke-miterlimit:4;stroke-dasharray:none;stroke-opacity:1"
       d="m -100.92769,187.29513 c 11.247411,-6.53383 21.405561,-10.30833 31.899011,-10.17941 16.255916,-0.19064 25.328174,17.78338 37.237726,18.47182 9.511609,0.54982 22.4951686,-1.90512 30.5676476,-8.29241"
       id="path68-3-7-5-2-1-0"
       sodipodi:nodetypes="ccsc" />
    <rect
       style="fill:#00ffff;stroke:#00ffff;stroke-width:0.25425;stroke-opacity:1"
       id="p7"
       width="99.74575"
       height="99.745743"
       x="-100.80055"
       y="199.75272"
       inkscape:export-xdpi="8.1300001"
       inkscape:export-ydpi="8.1300001" />
    <path
       style="fill:none;stroke:#000000;stroke-width:3;stroke-linecap:butt;stroke-linejoin:miter;stroke-miterlimit:4;stroke-dasharray:none;stroke-opacity:1"
       d="m -100.92769,212.85548 c 11.247413,-6.53384 21.339252,-10.30834 31.832711,-10.17941 16.255908,-0.19064 25.328177,17.78337 37.237736,18.47181 9.511591,0.54982 22.241981,-2.22801 30.92957601,-8.29241"
       id="path68-6-2-6-2"
       sodipodi:nodetypes="ccsc" />
    <path
       style="fill:none;stroke:#000000;stroke-width:3;stroke-linecap:butt;stroke-linejoin:miter;stroke-miterlimit:4;stroke-dasharray:none;stroke-opacity:1"
       d="m -100.92769,240.05367 c 11.247413,-6.53384 21.738773,-10.30834 32.232232,-10.1794 16.255916,-0.19065 24.919366,18.11323 36.828926,18.80166 9.511591,0.54983 23.904821,-1.06739 30.93886501,-8.2924"
       id="path68-3-75-9-2-3"
       sodipodi:nodetypes="ccsc" />
    <path
       style="fill:none;stroke:#000000;stroke-width:3;stroke-linecap:butt;stroke-linejoin:miter;stroke-miterlimit:4;stroke-dasharray:none;stroke-opacity:1"
       d="m -100.92769,263.93412 c 11.247413,-6.53384 21.713353,-10.30834 32.206814,-10.17941 16.255915,-0.19064 25.328173,17.78337 37.237733,18.47181 9.511591,0.54982 21.864741,-2.19564 30.55547601,-8.10263"
       id="path68-3-6-3-1-6-7"
       sodipodi:nodetypes="ccsc" />
    <path
       style="fill:none;stroke:#000000;stroke-width:3;stroke-linecap:butt;stroke-linejoin:miter;stroke-miterlimit:4;stroke-dasharray:none;stroke-opacity:1"
       d="m -100.92769,287.04089 c 11.247413,-6.53384 21.405563,-10.30834 31.899013,-10.17941 16.255916,-0.19064 25.328174,17.78337 37.237726,18.47181 9.511609,0.54982 22.495169,-1.90512 30.567648,-8.2924"
       id="path68-3-7-5-2-1-5"
       sodipodi:nodetypes="ccsc" />
    <rect
       style="fill:#00ffff;stroke:#00ffff;stroke-width:0.25425;stroke-opacity:1"
       id="p8"
       width="99.74575"
       height="99.745743"
       x="-0.29203796"
       y="200.60223"
       inkscape:export-xdpi="8.1300001"
       inkscape:export-ydpi="8.1300001" />
    <path
       style="fill:none;stroke:#000000;stroke-width:3;stroke-linecap:butt;stroke-linejoin:miter;stroke-miterlimit:4;stroke-dasharray:none;stroke-opacity:1"
       d="M -0.41916717,213.70499 C 10.828241,207.17115 20.92008,203.39665 31.413539,203.52558 c 16.255908,-0.19064 25.328177,17.78337 37.237736,18.47181 9.51159,0.54982 22.24198,-2.22801 30.929576,-8.29241"
       id="path68-6-2-6-22"
       sodipodi:nodetypes="ccsc" />
    <path
       style="fill:none;stroke:#000000;stroke-width:3;stroke-linecap:butt;stroke-linejoin:miter;stroke-miterlimit:4;stroke-dasharray:none;stroke-opacity:1"
       d="M -0.41916717,240.90318 C 10.828241,234.36934 21.319601,230.59484 31.81306,230.72378 c 16.255916,-0.19065 24.919366,18.11323 36.828926,18.80166 9.51159,0.54983 23.904821,-1.06739 30.938865,-8.2924"
       id="path68-3-75-9-2-8"
       sodipodi:nodetypes="ccsc" />
    <path
       style="fill:none;stroke:#000000;stroke-width:3;stroke-linecap:butt;stroke-linejoin:miter;stroke-miterlimit:4;stroke-dasharray:none;stroke-opacity:1"
       d="M -0.41916717,264.78363 C 10.828241,258.24979 21.294181,254.47529 31.787642,254.60422 c 16.255915,-0.19064 25.328173,17.78337 37.237733,18.47181 9.51159,0.54982 21.86474,-2.19564 30.555476,-8.10263"
       id="path68-3-6-3-1-6-9"
       sodipodi:nodetypes="ccsc" />
    <path
       style="fill:none;stroke:#000000;stroke-width:3;stroke-linecap:butt;stroke-linejoin:miter;stroke-miterlimit:4;stroke-dasharray:none;stroke-opacity:1"
       d="M -0.41916717,287.8904 C 10.828241,281.35656 20.986391,277.58206 31.479841,277.71099 c 16.255916,-0.19064 25.328174,17.78337 37.237726,18.47181 9.511608,0.54982 22.495168,-1.90512 30.567648,-8.2924"
       id="path68-3-7-5-2-1-7"
       sodipodi:nodetypes="ccsc" />
    <rect
       style="fill:#00ffff;stroke:#00ffff;stroke-width:0.25425;stroke-opacity:1"
       id="p9"
       width="99.74575"
       height="99.745743"
       x="99.453712"
       y="200.60223"
       inkscape:export-xdpi="8.1300001"
       inkscape:export-ydpi="8.1300001" />
    <path
       style="fill:none;stroke:#000000;stroke-width:3;stroke-linecap:butt;stroke-linejoin:miter;stroke-miterlimit:4;stroke-dasharray:none;stroke-opacity:1"
       d="m 99.326583,213.70499 c 11.247407,-6.53384 21.339247,-10.30834 31.832707,-10.17941 16.25591,-0.19064 25.32818,17.78337 37.23774,18.47181 9.51159,0.54982 22.24198,-2.22801 30.92957,-8.29241"
       id="path68-6-2-6-6"
       sodipodi:nodetypes="ccsc" />
    <path
       style="fill:none;stroke:#000000;stroke-width:3;stroke-linecap:butt;stroke-linejoin:miter;stroke-miterlimit:4;stroke-dasharray:none;stroke-opacity:1"
       d="m 99.326583,240.90318 c 11.247407,-6.53384 21.738767,-10.30834 32.232227,-10.1794 16.25592,-0.19065 24.91937,18.11323 36.82893,18.80166 9.51159,0.54983 23.90482,-1.06739 30.93886,-8.2924"
       id="path68-3-75-9-2-1"
       sodipodi:nodetypes="ccsc" />
    <path
       style="fill:none;stroke:#000000;stroke-width:3;stroke-linecap:butt;stroke-linejoin:miter;stroke-miterlimit:4;stroke-dasharray:none;stroke-opacity:1"
       d="m 99.326583,264.78363 c 11.247407,-6.53384 21.713347,-10.30834 32.206807,-10.17941 16.25592,-0.19064 25.32818,17.78337 37.23774,18.47181 9.51159,0.54982 21.86474,-2.19564 30.55547,-8.10263"
       id="path68-3-6-3-1-6-29"
       sodipodi:nodetypes="ccsc" />
    <path
       style="fill:none;stroke:#000000;stroke-width:3;stroke-linecap:butt;stroke-linejoin:miter;stroke-miterlimit:4;stroke-dasharray:none;stroke-opacity:1"
       d="m 99.326583,287.8904 c 11.247407,-6.53384 21.405557,-10.30834 31.899007,-10.17941 16.25592,-0.19064 25.32818,17.78337 37.23773,18.47181 9.51161,0.54982 22.49517,-1.90512 30.56765,-8.2924"
       id="path68-3-7-5-2-1-3"
       sodipodi:nodetypes="ccsc" />
    <rect
       style="fill:#516c79;fill-opacity:1;stroke:none;stroke-width:3"
       id="rect4349"
       width="299.74579"
       height="299.89694"
       x="-100.54629"
       y="0.45101067"
       ry="50.001118" />
  </g>
</svg>
